<svg width="14" height="7" viewBox="0 0 14 7" fill="none" xmlns="http://www.w3.org/2000/svg">
<path d="M12.6252 0.403666C12.505 0.402985 12.3858 0.425572 12.2744 0.470133C12.1631 0.514693 12.0619 0.58035 11.9765 0.663339L7.79205 4.77333C7.70711 4.85725 7.60606 4.92387 7.49473 4.96933C7.38339 5.01479 7.26397 5.03819 7.14336 5.03819C7.02275 5.03819 6.90333 5.01479 6.792 4.96933C6.68066 4.92387 6.57961 4.85725 6.49468 4.77333L2.3102 0.663339C2.13816 0.494728 1.90482 0.400003 1.66152 0.400003C1.41822 0.400003 1.18488 0.494728 1.01283 0.663339C0.840793 0.83195 0.744141 1.06064 0.744141 1.29909C0.744141 1.41716 0.76787 1.53407 0.813972 1.64315C0.860075 1.75224 0.927648 1.85135 1.01283 1.93484L5.20644 6.03587C5.72717 6.52618 6.42126 6.8 7.14336 6.8C7.86546 6.8 8.55956 6.52618 9.08028 6.03587L13.2739 1.93484C13.3595 1.8516 13.4275 1.75256 13.4739 1.64345C13.5203 1.53433 13.5441 1.41729 13.5441 1.29909C13.5441 1.18088 13.5203 1.06385 13.4739 0.95473C13.4275 0.845614 13.3595 0.74658 13.2739 0.663339C13.1885 0.58035 13.0873 0.514693 12.976 0.470133C12.8646 0.425572 12.7454 0.402985 12.6252 0.403666Z" fill="#292929"/>
</svg>
